<?xml version="1.0" encoding="UTF-8"?>
<svg width="512px" height="512px" viewBox="0 0 512 512" version="1.1" xmlns="http://www.w3.org/2000/svg" xmlns:xlink="http://www.w3.org/1999/xlink">
    <title>Grupo</title>
    <defs>
        <path d="M0,0 L512,0 L512,512 L0,512 L0,0 Z" id="path-1"></path>
    </defs>
    <g id="Grupo" stroke="none" fill="none" xlink:href="#path-1">
        <circle id="Óvalo" cx="256" cy="256" r="256"></circle>
        <g id="PLai-Imagotipo" transform="translate(68, 12)" fill="#000000" fill-rule="evenodd">
            <path d="M18.5170854,410.055923 L49.5445742,425.755857 L86.9518952,370.75898 L55.3595403,355.033351 L18.5170854,410.055923 Z M52.0506296,442.954694 C50.8979588,442.954694 49.7338187,442.692029 48.6413621,442.138149 L4.12016994,419.614639 C2.20478665,418.643921 0.791187905,416.899484 0.246393257,414.826716 C-0.298401391,412.751093 0.0686181611,410.544137 1.26429905,408.759729 L46.5051936,341.192056 C48.6098213,338.040078 52.7387913,336.946593 56.1480588,338.639639 L101.388953,361.163148 C103.33301,362.131011 104.760945,363.884013 105.314342,365.976767 C105.862004,368.069521 105.477781,370.296462 104.259161,372.086579 L58.298564,439.657108 C56.8534245,441.781267 54.4850015,442.954694 52.0506296,442.954694 L52.0506296,442.954694 Z" id="Fill-21"></path>
            <path d="M63.154118,432.520048 L95.4776447,448.359879 L132.297161,394.6335 L100.45248,377.685909 L63.154118,432.520048 Z M98.0123735,465.478774 C96.8941108,465.478774 95.7557767,465.22753 94.6891261,464.705055 L48.7285292,442.184401 C46.7730031,441.225103 45.3278637,439.469246 44.7715996,437.370782 C44.2124683,435.272318 44.5909572,433.036812 45.8153115,431.238129 L91.7759084,363.667601 C93.9407503,360.484217 98.1758119,359.436413 101.570743,361.257936 L146.811637,385.340304 C148.698347,386.342428 150.068936,388.098285 150.579322,390.171053 C151.089709,392.240966 150.691149,394.427937 149.483998,396.186649 L104.245971,462.201174 C102.797964,464.311058 100.438143,465.478774 98.0123735,465.478774 L98.0123735,465.478774 Z" id="Fill-23"></path>
            <path d="M109.112708,455.101229 L140.676389,470.815439 L177.355406,416.035545 L145.877745,401.451937 L109.112708,455.101229 Z M143.251261,488 C142.115794,488 140.963123,487.7459 139.885003,487.206295 L94.6469762,464.682786 C92.7000522,463.714923 91.2692494,461.953356 90.7215874,459.857747 C90.1767928,457.762138 90.5638837,455.529487 91.7911053,453.739369 L137.029132,387.727699 C139.107954,384.689923 143.084955,383.602148 146.439743,385.152442 L191.680638,406.117093 C193.673439,407.04213 195.164456,408.783712 195.757996,410.896451 C196.351535,413.00348 195.993117,415.264681 194.771631,417.086205 L149.530736,484.656733 C148.091331,486.806588 145.705704,488 143.251261,488 L143.251261,488 Z" id="Fill-25"></path>
            <path d="M60.314591,340.714977 L90.4818778,355.732553 L90.4818778,124.93867 L60.314591,109.789761 L60.314591,340.714977 Z M98.0172479,375.38388 C96.8645772,375.38388 95.7119064,375.121215 94.6481231,374.590175 L49.4043613,352.069521 C46.8524285,350.796167 45.2381159,348.198069 45.2381159,345.354437 L45.2381159,97.5986867 C45.2381159,94.9920237 46.5972352,92.5709391 48.8251586,91.203369 C51.0559493,89.8415089 53.8401367,89.7244517 56.1712843,90.8950233 L101.412179,113.615531 C103.95551,114.89174 105.555485,117.484128 105.555485,120.319195 L105.555485,367.877947 C105.555485,370.478899 104.204968,372.894274 101.979912,374.261844 C100.769895,375.007013 99.3964386,375.38388 98.0172479,375.38388 L98.0172479,375.38388 Z" id="Fill-27"></path>
            <path d="M105.556632,363.376956 L135.721052,379.433772 L135.721052,147.300869 L105.556632,132.414625 L105.556632,363.376956 Z M143.256422,399.46482 C142.037802,399.46482 140.816315,399.17075 139.703787,398.576899 L94.4657603,374.497386 C92.011317,373.192627 90.4801574,370.64592 90.4801574,367.876519 L90.4801574,120.317767 C90.4801574,117.722525 91.8278073,115.30715 94.0442613,113.93958 C96.257848,112.569155 99.030566,112.440677 101.367448,113.594119 L146.605475,135.92063 C149.171745,137.185418 150.79466,139.792081 150.79466,142.644278 L150.79466,391.958887 C150.79466,394.596956 149.406867,397.040881 147.133066,398.397031 C145.94312,399.107939 144.601205,399.46482 143.256422,399.46482 L143.256422,399.46482 Z" id="Fill-29"></path>
            <path d="M150.79552,387.170964 L180.962807,401.149301 L180.962807,170.189825 L150.79552,154.892454 L150.79552,387.170964 Z M188.498177,420.426616 C187.414322,420.426616 186.330468,420.195357 185.318296,419.727128 L140.077402,398.765333 C137.419378,397.53195 135.719045,394.876751 135.719045,391.958887 L135.719045,142.647133 C135.719045,140.031905 137.083899,137.610821 139.317557,136.246106 C141.554082,134.88139 144.341137,134.772898 146.678019,135.957745 L191.921781,158.900948 C194.447908,160.182866 196.036414,162.763834 196.036414,165.590336 L196.036414,412.923538 C196.036414,415.487375 194.723172,417.874199 192.552596,419.250335 C191.322507,420.032619 189.914643,420.426616 188.498177,420.426616 L188.498177,420.426616 Z" id="Fill-31"></path>
            <path d="M241.276449,147.497011 L241.276449,333.215324 L343.471323,282.381114 C352.893403,277.57606 358.619481,274.655342 360.357089,272.054389 C361.922657,269.716101 361.922657,264.582716 361.922657,255.26097 L361.922657,87.238272 L241.276449,147.497011 Z M233.738211,352.860941 C232.361888,352.860941 230.985564,352.484074 229.77268,351.738905 C227.553358,350.371335 226.199974,347.955961 226.199974,345.355008 L226.199974,142.866116 C226.199974,140.028194 227.808551,137.430096 230.357617,136.156742 L366.0803,68.3663746 C368.42005,67.1986581 371.198503,67.3185703 373.420692,68.6861405 C375.64288,70.0537107 376.999132,72.4719402 376.999132,75.0757481 L376.999132,255.26097 C376.999132,280.391142 375.252922,283.043486 350.275521,295.77702 L237.107336,352.067236 C236.043553,352.598276 234.888015,352.860941 233.738211,352.860941 L233.738211,352.860941 Z" id="Fill-33"></path>
            <path d="M159.99108,142.707089 L188.521115,157.176496 L352.636202,75.0908799 L324.217993,60.9440945 L159.99108,142.707089 Z M188.498177,173.096269 C187.325435,173.096269 186.152692,172.822184 185.07744,172.276869 L139.836545,149.333666 C137.301817,148.048893 135.707575,145.450795 135.718983,142.618583 C135.730514,139.786371 137.341959,137.196838 139.88529,135.93205 L320.848868,45.8380115 C322.967833,44.7873521 325.465286,44.7759319 327.589985,45.8380115 L372.83088,68.361521 C375.382812,69.6320194 376.997125,72.2272622 376.999996,75.0680395 C377.00286,77.9088168 375.394282,80.5069146 372.842349,81.7831231 L191.881638,172.296854 C190.817855,172.830749 189.65945,173.096269 188.498177,173.096269 L188.498177,173.096269 Z" id="Fill-35"></path>
            <path d="M114.752193,120.181581 L143.279361,134.650988 L307.394448,52.5682268 L278.979106,38.4214414 L114.752193,120.181581 Z M143.256422,150.570761 C142.08368,150.570761 140.910938,150.296676 139.835685,149.751361 L94.597658,126.808158 C92.0629292,125.523385 90.468688,122.925287 90.4800959,120.093075 C90.4916267,117.260863 92.1030719,114.67133 94.6464027,113.406542 L275.609981,23.3153584 C277.73468,22.258989 280.232133,22.258989 282.351098,23.3153584 L327.591992,45.838868 C330.141058,47.1093664 331.75537,49.7046091 331.758241,52.5482415 C331.761105,55.3861637 330.152527,57.9842615 327.600594,59.26047 L146.639884,149.771346 C145.5761,150.305241 144.417695,150.570761 143.256422,150.570761 L143.256422,150.570761 Z" id="Fill-37"></path>
            <path d="M69.5104379,97.6592138 L98.0404734,112.12862 L262.15556,30.0430042 L233.737351,15.8962188 L69.5104379,97.6592138 Z M98.0175347,128.048393 C96.8447925,128.048393 95.6720504,127.774308 94.5967978,127.228993 L49.3559032,104.285791 C46.8211745,103.001017 45.2269333,100.402919 45.2383412,97.5707072 C45.249872,94.738495 46.8613172,92.1489624 49.404648,90.8841741 L230.368226,0.790135793 C232.492925,-0.263378598 234.990379,-0.263378598 237.109343,0.790135793 L282.350238,23.3165004 C284.90217,24.5869988 286.516483,27.1822416 286.519354,30.0258739 C286.522218,32.8637961 284.91364,35.461894 282.361707,36.7381025 L101.400996,127.248978 C100.337213,127.782873 99.1788075,128.048393 98.0175347,128.048393 L98.0175347,128.048393 Z" id="Fill-39"></path>
            <path d="M286.518203,124.765368 L286.518203,309.398762 C316.679755,287.577595 316.682623,249.888046 316.682623,210.214236 L316.682623,109.616459 L286.518203,124.765368 Z M278.979966,330.137863 C277.597908,330.137863 276.21585,329.758141 275.000098,329.007263 C272.789378,327.639692 271.441728,325.227173 271.441728,322.63193 L271.441728,120.145893 C271.441728,117.313681 273.044571,114.718438 275.585035,113.44223 L320.825929,90.7217216 C323.159944,89.5454399 325.944132,89.6682072 328.169188,91.0329223 C330.399979,92.3976374 331.756231,94.818722 331.756231,97.425385 L331.756231,210.214236 C331.756231,254.655984 331.756231,305.033386 282.320417,329.361289 C281.265236,329.880909 280.121167,330.137863 278.979966,330.137863 L278.979966,330.137863 Z" id="Fill-41"></path>
            <path d="M241.276449,147.505576 L241.276449,333.326672 L253.044013,327.596581 C262.411614,322.820078 268.137692,319.902214 269.878168,317.301262 C271.443735,314.960118 271.443735,309.826734 271.443735,300.504987 L271.443735,132.488 L241.276449,147.505576 Z M233.738211,352.860941 C232.350418,352.860941 230.962626,352.478364 229.746873,351.721775 C227.541889,350.35135 226.199974,347.944541 226.199974,345.355008 L226.199974,142.866116 C226.199974,140.022484 227.814286,137.424386 230.366219,136.151032 L275.609981,113.630378 C277.941128,112.471226 280.719581,112.591139 282.94177,113.958709 C285.166826,115.326279 286.517343,117.741653 286.517343,120.342606 L286.517343,300.504987 C286.517343,325.638015 284.771133,328.287504 259.793732,341.018183 L237.049989,352.095787 C236.00341,352.609696 234.87081,352.860941 233.738211,352.860941 L233.738211,352.860941 Z" id="Fill-43"></path>
            <path d="M196.037561,170.208383 L196.037561,412.922111 C196.037561,414.406738 195.598858,415.851395 194.773064,417.084777 L165.273868,461.141093 L185.127332,451.256901 C226.199113,431.045984 226.199113,389.519245 226.199113,345.551436 L226.199113,155.062329 L196.037561,170.208383 Z M143.261297,487.998572 C141.148067,487.998572 139.07498,487.116361 137.606902,485.460431 C135.34457,482.910869 135.089377,479.15933 136.984689,476.329973 L180.961086,410.649489 L180.961086,165.588908 C180.961086,162.756696 182.563929,160.164308 185.101526,158.885245 L230.34242,136.161881 C232.68217,134.9856 235.46349,135.108367 237.688546,136.473082 C239.919336,137.837797 241.275588,140.258882 241.275588,142.865545 L241.275588,345.551436 C241.275588,389.996039 241.275588,440.370586 191.839775,464.701344 L146.627554,487.207723 C145.555169,487.741618 144.402498,487.998572 143.261297,487.998572 L143.261297,487.998572 Z" id="Fill-45"></path>
        </g>
    </g>
</svg>