<?xml version="1.0" encoding="UTF-8"?>
<svg width="693px" height="172px" viewBox="0 0 693 172" version="1.1" xmlns="http://www.w3.org/2000/svg" xmlns:xlink="http://www.w3.org/1999/xlink">
    <title>PLai Framework White</title>
    <g id="Logos" stroke="none" stroke-width="1" fill="none" fill-rule="evenodd">
        <g id="Lienzo" transform="translate(-915, -1296)" fill="#FFFFFF">
            <g id="PLai-Framework-White" transform="translate(915.0002, 1296.9776)">
                <g id="Group-56-Copy" transform="translate(0, 0)">
                    <path d="M6.45793094,143.62465 L17.2789309,149.12365 L30.3249309,129.86065 L19.3069309,124.35265 L6.45793094,143.62465 Z M18.1529309,155.14765 C17.7509309,155.14765 17.3449309,155.05565 16.9639309,154.86165 L1.43693094,146.97265 C0.768930945,146.63265 0.275930945,146.02165 0.0859309447,145.29565 C-0.104069055,144.56865 0.0239309447,143.79565 0.440930945,143.17065 L16.2189309,119.50465 C16.9529309,118.40065 18.3929309,118.01765 19.5819309,118.61065 L35.3599309,126.49965 C36.0379309,126.83865 36.5359309,127.45265 36.7289309,128.18565 C36.9199309,128.91865 36.7859309,129.69865 36.3609309,130.32565 L20.3319309,153.99265 C19.8279309,154.73665 19.0019309,155.14765 18.1529309,155.14765 L18.1529309,155.14765 Z" id="Fill-21"></path>
                    <path d="M22.0253309,151.49285 L33.2983309,157.04085 L46.1393309,138.22285 L35.0333309,132.28685 L22.0253309,151.49285 Z M34.1823309,163.03685 C33.7923309,163.03685 33.3953309,162.94885 33.0233309,162.76585 L16.9943309,154.87785 C16.3123309,154.54185 15.8083309,153.92685 15.6143309,153.19185 C15.4193309,152.45685 15.5513309,151.67385 15.9783309,151.04385 L32.0073309,127.37685 C32.7623309,126.26185 34.2393309,125.89485 35.4233309,126.53285 L51.2013309,134.96785 C51.8593309,135.31885 52.3373309,135.93385 52.5153309,136.65985 C52.6933309,137.38485 52.5543309,138.15085 52.1333309,138.76685 L36.3563309,161.88885 C35.8513309,162.62785 35.0283309,163.03685 34.1823309,163.03685 L34.1823309,163.03685 Z" id="Fill-23"></path>
                    <path d="M38.0536309,159.40205 L49.0616309,164.90605 L61.8536309,145.71905 L50.8756309,140.61105 L38.0536309,159.40205 Z M49.9596309,170.92505 C49.5636309,170.92505 49.1616309,170.83605 48.7856309,170.64705 L33.0086309,162.75805 C32.3296309,162.41905 31.8306309,161.80205 31.6396309,161.06805 C31.4496309,160.33405 31.5846309,159.55205 32.0126309,158.92505 L47.7896309,135.80405 C48.5146309,134.74005 49.9016309,134.35905 51.0716309,134.90205 L66.8496309,142.24505 C67.5446309,142.56905 68.0646309,143.17905 68.2716309,143.91905 C68.4786309,144.65705 68.3536309,145.44905 67.9276309,146.08705 L52.1496309,169.75405 C51.6476309,170.50705 50.8156309,170.92505 49.9596309,170.92505 L49.9596309,170.92505 Z" id="Fill-25"></path>
                    <path d="M21.0350309,119.33755 L31.5560309,124.59755 L31.5560309,43.76055 L21.0350309,38.45455 L21.0350309,119.33755 Z M34.1840309,131.48055 C33.7820309,131.48055 33.3800309,131.38855 33.0090309,131.20255 L17.2300309,123.31455 C16.3400309,122.86855 15.7770309,121.95855 15.7770309,120.96255 L15.7770309,34.18455 C15.7770309,33.27155 16.2510309,32.42355 17.0280309,31.94455 C17.8060309,31.46755 18.7770309,31.42655 19.5900309,31.83655 L35.3680309,39.79455 C36.2550309,40.24155 36.8130309,41.14955 36.8130309,42.14255 L36.8130309,128.85155 C36.8130309,129.76255 36.3420309,130.60855 35.5660309,131.08755 C35.1440309,131.34855 34.6650309,131.48055 34.1840309,131.48055 L34.1840309,131.48055 Z" id="Fill-27"></path>
                    <path d="M36.8134309,127.27505 L47.3334309,132.89905 L47.3334309,51.59305 L36.8134309,46.37905 L36.8134309,127.27505 Z M49.9614309,139.91505 C49.5364309,139.91505 49.1104309,139.81205 48.7224309,139.60405 L32.9454309,131.17005 C32.0894309,130.71305 31.5554309,129.82105 31.5554309,128.85105 L31.5554309,42.14205 C31.5554309,41.23305 32.0254309,40.38705 32.7984309,39.90805 C33.5704309,39.42805 34.5374309,39.38305 35.3524309,39.78705 L51.1294309,47.60705 C52.0244309,48.05005 52.5904309,48.96305 52.5904309,49.96205 L52.5904309,137.28605 C52.5904309,138.21005 52.1064309,139.06605 51.3134309,139.54105 C50.8984309,139.79005 50.4304309,139.91505 49.9614309,139.91505 L49.9614309,139.91505 Z" id="Fill-29"></path>
                    <path d="M52.5907309,135.60905 L63.1117309,140.50505 L63.1117309,59.61005 L52.5907309,54.25205 L52.5907309,135.60905 Z M65.7397309,147.25705 C65.3617309,147.25705 64.9837309,147.17605 64.6307309,147.01205 L48.8527309,139.67005 C47.9257309,139.23805 47.3327309,138.30805 47.3327309,137.28605 L47.3327309,49.96305 C47.3327309,49.04705 47.8087309,48.19905 48.5877309,47.72105 C49.3677309,47.24305 50.3397309,47.20505 51.1547309,47.62005 L66.9337309,55.65605 C67.8147309,56.10505 68.3687309,57.00905 68.3687309,57.99905 L68.3687309,144.62905 C68.3687309,145.52705 67.9107309,146.36305 67.1537309,146.84505 C66.7247309,147.11905 66.2337309,147.25705 65.7397309,147.25705 L65.7397309,147.25705 Z" id="Fill-31"></path>
                    <path d="M84.1464309,51.66175 L84.1464309,116.71075 L119.787431,98.90575 C123.073431,97.22275 125.070431,96.19975 125.676431,95.28875 C126.222431,94.46975 126.222431,92.67175 126.222431,89.40675 L126.222431,30.55575 L84.1464309,51.66175 Z M81.5174309,123.59175 C81.0374309,123.59175 80.5574309,123.45975 80.1344309,123.19875 C79.3604309,122.71975 78.8884309,121.87375 78.8884309,120.96275 L78.8884309,50.03975 C78.8884309,49.04575 79.4494309,48.13575 80.3384309,47.68975 L127.672431,23.94575 C128.488431,23.53675 129.457431,23.57875 130.232431,24.05775 C131.007431,24.53675 131.480431,25.38375 131.480431,26.29575 L131.480431,89.40675 C131.480431,98.20875 130.871431,99.13775 122.160431,103.59775 L82.6924309,123.31375 C82.3214309,123.49975 81.9184309,123.59175 81.5174309,123.59175 L81.5174309,123.59175 Z" id="Fill-33"></path>
                    <path d="M55.7977309,49.98405 L65.7477309,55.05205 L122.983731,26.30105 L113.072731,21.34605 L55.7977309,49.98405 Z M65.7397309,60.62805 C65.3307309,60.62805 64.9217309,60.53205 64.5467309,60.34105 L48.7687309,52.30505 C47.8847309,51.85505 47.3287309,50.94505 47.3327095,49.95305 C47.3367309,48.96105 47.8987309,48.05405 48.7857309,47.61105 L111.897731,16.05505 C112.636731,15.68705 113.507731,15.68305 114.248731,16.05505 L130.026731,23.94405 C130.916731,24.38905 131.479731,25.29805 131.480732,26.29305 C131.481731,27.28805 130.920731,28.19805 130.030731,28.64505 L66.9197309,60.34805 C66.5487309,60.53505 66.1447309,60.62805 65.7397309,60.62805 L65.7397309,60.62805 Z" id="Fill-35"></path>
                    <path d="M40.0204309,42.09435 L49.9694309,47.16235 L107.205431,18.41235 L97.2954309,13.45735 L40.0204309,42.09435 Z M49.9614309,52.73835 C49.5524309,52.73835 49.1434309,52.64235 48.7684309,52.45135 L32.9914309,44.41535 C32.1074309,43.96535 31.5514309,43.05535 31.5554095,42.06335 C31.5594309,41.07135 32.1214309,40.16435 33.0084309,39.72135 L96.1204309,8.16635 C96.8614309,7.79635 97.7324309,7.79635 98.4714309,8.16635 L114.249431,16.05535 C115.138431,16.50035 115.701431,17.40935 115.702432,18.40535 C115.703431,19.39935 115.142431,20.30935 114.252431,20.75635 L51.1414309,52.45835 C50.7704309,52.64535 50.3664309,52.73835 49.9614309,52.73835 L49.9614309,52.73835 Z" id="Fill-37"></path>
                    <path d="M24.2421309,34.20575 L34.1921309,39.27375 L91.4281309,10.52275 L81.5171309,5.56775 L24.2421309,34.20575 Z M34.1841309,44.84975 C33.7751309,44.84975 33.3661309,44.75375 32.9911309,44.56275 L17.2131309,36.52675 C16.3291309,36.07675 15.7731309,35.16675 15.7771095,34.17475 C15.7811309,33.18275 16.3431309,32.27575 17.2301309,31.83275 L80.3421309,0.27675 C81.0831309,-0.09225 81.9541309,-0.09225 82.6931309,0.27675 L98.4711309,8.16675 C99.3611309,8.61175 99.9241309,9.52075 99.9251323,10.51675 C99.9261309,11.51075 99.3651309,12.42075 98.4751309,12.86775 L35.3641309,44.56975 C34.9931309,44.75675 34.5891309,44.84975 34.1841309,44.84975 L34.1841309,44.84975 Z" id="Fill-39"></path>
                    <path d="M99.9247309,43.69985 L99.9247309,108.36885 C110.443731,100.72585 110.444731,87.52485 110.444731,73.62885 L110.444731,38.39385 L99.9247309,43.69985 Z M97.2957309,115.63285 C96.8137309,115.63285 96.3317309,115.49985 95.9077309,115.23685 C95.1367309,114.75785 94.6667309,113.91285 94.6667309,113.00385 L94.6667309,42.08185 C94.6667309,41.08985 95.2257309,40.18085 96.1117309,39.73385 L111.889731,31.77585 C112.703731,31.36385 113.674731,31.40685 114.450731,31.88485 C115.228731,32.36285 115.701731,33.21085 115.701731,34.12385 L115.701731,73.62885 C115.701731,89.19485 115.701731,106.83985 98.4607309,115.36085 C98.0927309,115.54285 97.6937309,115.63285 97.2957309,115.63285 L97.2957309,115.63285 Z" id="Fill-41"></path>
                    <path d="M84.1464309,51.66475 L84.1464309,116.74975 L88.2504309,114.74275 C91.5174309,113.06975 93.5144309,112.04775 94.1214309,111.13675 C94.6674309,110.31675 94.6674309,108.51875 94.6674309,105.25375 L94.6674309,46.40475 L84.1464309,51.66475 Z M81.5174309,123.59175 C81.0334309,123.59175 80.5494309,123.45775 80.1254309,123.19275 C79.3564309,122.71275 78.8884309,121.86975 78.8884309,120.96275 L78.8884309,50.03975 C78.8884309,49.04375 79.4514309,48.13375 80.3414309,47.68775 L96.1204309,39.79975 C96.9334309,39.39375 97.9024309,39.43575 98.6774309,39.91475 C99.4534309,40.39375 99.9244309,41.23975 99.9244309,42.15075 L99.9244309,105.25375 C99.9244309,114.05675 99.3154309,114.98475 90.6044309,119.44375 L82.6724309,123.32375 C82.3074309,123.50375 81.9124309,123.59175 81.5174309,123.59175 L81.5174309,123.59175 Z" id="Fill-43"></path>
                    <path d="M68.3691309,59.61655 L68.3691309,144.62855 C68.3691309,145.14855 68.2161309,145.65455 67.9281309,146.08655 L57.6401309,161.51755 L64.5641309,158.05555 C78.8881309,150.97655 78.8881309,136.43155 78.8881309,121.03155 L78.8881309,54.31155 L68.3691309,59.61655 Z M49.9631309,170.92455 C49.2261309,170.92455 48.5031309,170.61555 47.9911309,170.03555 C47.2021309,169.14255 47.1131309,167.82855 47.7741309,166.83755 L63.1111309,143.83255 L63.1111309,57.99855 C63.1111309,57.00655 63.6701309,56.09855 64.5551309,55.65055 L80.3331309,47.69155 C81.1491309,47.27955 82.1191309,47.32255 82.8951309,47.80055 C83.6731309,48.27855 84.1461309,49.12655 84.1461309,50.03955 L84.1461309,121.03155 C84.1461309,136.59855 84.1461309,154.24255 66.9051309,162.76455 L51.1371309,170.64755 C50.7631309,170.83455 50.3611309,170.92455 49.9631309,170.92455 L49.9631309,170.92455 Z" id="Fill-45"></path>
                </g>
                <g id="PLai-Framework" transform="translate(169.9998, 39.0225)" fill-rule="nonzero">
                    <path d="M5.63671875,76 L5.63671875,19.2519531 L25.9746094,19.2519531 C29.9355469,19.2519531 33.3569336,19.9501953 36.2387695,21.3466797 C39.1206055,22.7431641 41.3422852,24.7299805 42.9038086,27.3071289 C44.465332,29.8842773 45.2460938,32.9375 45.2460938,36.4667969 C45.2460938,39.9960937 44.4399414,43.0493164 42.8276367,45.6264648 C41.215332,48.2036133 38.9428711,50.1967773 36.0102539,51.605957 C33.0776367,53.0151367 29.6308594,53.7197266 25.6699219,53.7197266 L9.06445312,53.7197266 L9.06445312,47.6259766 L25.7460938,47.6259766 C28.3867187,47.6259766 30.652832,47.175293 32.5444336,46.2739258 C34.4360352,45.3725586 35.8959961,44.0839844 36.9243164,42.4082031 C37.9526367,40.7324219 38.4667969,38.7519531 38.4667969,36.4667969 C38.4667969,34.15625 37.9526367,32.1757812 36.9243164,30.5253906 C35.8959961,28.875 34.4360352,27.5991211 32.5444336,26.6977539 C30.652832,25.7963867 28.3867187,25.3457031 25.7460938,25.3457031 L12.4921875,25.3457031 L12.4921875,76 L5.63671875,76 Z" id="Trazado"></path>
                    <polygon id="Trazado" points="53.3583984 76 53.3583984 19.2519531 60.2138672 19.2519531 60.2138672 69.90625 87.5595703 69.90625 87.5595703 76"></polygon>
                    <path d="M106.526367,76.609375 C103.860352,76.609375 101.473633,76.1523438 99.3662109,75.2382812 C97.2587891,74.3242188 95.5893555,72.9594727 94.3579102,71.144043 C93.1264648,69.3286133 92.5107422,67.0878906 92.5107422,64.421875 C92.5107422,62.1113281 92.9614258,60.2324219 93.862793,58.7851563 C94.7641602,57.3378906 95.9702148,56.2016602 97.480957,55.3764648 C98.9916992,54.5512695 100.705566,53.9228516 102.622559,53.4912109 C104.539551,53.0595703 106.500977,52.7167969 108.506836,52.4628906 C111.071289,52.1074219 113.089844,51.8408203 114.5625,51.6630859 C116.035156,51.4853516 117.08252,51.1933594 117.70459,50.7871094 C118.32666,50.3808594 118.637695,49.6699219 118.637695,48.6542969 L118.637695,48.2734375 C118.637695,46.8007812 118.288574,45.4995117 117.590332,44.3696289 C116.89209,43.2397461 115.876465,42.3510742 114.543457,41.7036133 C113.210449,41.0561523 111.604492,40.7324219 109.725586,40.7324219 C107.87207,40.7324219 106.228027,41.043457 104.793457,41.6655273 C103.358887,42.2875977 102.216309,43.1318359 101.365723,44.1982422 C100.515137,45.2646484 100.039063,46.4707031 99.9375,47.8164063 L93.3486328,47.8164063 C93.4755859,45.3535156 94.2373047,43.1635742 95.6337891,41.246582 C97.0302734,39.3295898 98.9345703,37.8125 101.34668,36.6953125 C103.758789,35.578125 106.551758,35.0195312 109.725586,35.0195312 C112.061523,35.0195312 114.175293,35.3369141 116.066895,35.9716797 C117.958496,36.6064453 119.570801,37.5078125 120.903809,38.6757812 C122.236816,39.84375 123.258789,41.2402344 123.969727,42.8652344 C124.680664,44.4902344 125.036133,46.2929688 125.036133,48.2734375 L125.036133,76 L118.637695,76 L118.637695,70.2871094 L118.485352,70.2871094 C118.00293,71.2519531 117.291992,72.2231445 116.352539,73.2006836 C115.413086,74.1782227 114.149902,74.9907227 112.562988,75.6381836 C110.976074,76.2856445 108.963867,76.609375 106.526367,76.609375 Z M107.44043,70.8203125 C110.081055,70.8203125 112.226562,70.3442383 113.876953,69.3920898 C115.527344,68.4399414 116.733398,67.2021484 117.495117,65.6787109 C118.256836,64.1552734 118.637695,62.5175781 118.637695,60.765625 L118.637695,55.7382812 C118.383789,55.9667969 117.92041,56.1826172 117.247559,56.3857422 C116.574707,56.5888672 115.749512,56.7856445 114.771973,56.9760742 C113.794434,57.1665039 112.740723,57.3505859 111.61084,57.5283203 C110.480957,57.7060547 109.344727,57.8710937 108.202148,58.0234375 C106.65332,58.2265625 105.187012,58.5756836 103.803223,59.0708008 C102.419434,59.565918 101.295898,60.2641602 100.432617,61.1655273 C99.5693359,62.0668945 99.1376953,63.2792969 99.1376953,64.8027344 C99.1376953,66.046875 99.4741211,67.1196289 100.146973,68.0209961 C100.819824,68.9223633 101.77832,69.6142578 103.022461,70.0966797 C104.266602,70.5791016 105.739258,70.8203125 107.44043,70.8203125 Z" id="Forma"></path>
                    <path d="M134.633789,76 L134.633789,35.78125 L141.108398,35.78125 L141.108398,76 L134.633789,76 Z M137.871094,27.9355469 C136.652344,27.9355469 135.611328,27.5039062 134.748047,26.640625 C133.884766,25.7773437 133.453125,24.7363281 133.453125,23.5175781 C133.453125,22.2988281 133.884766,21.2578125 134.748047,20.3945312 C135.611328,19.53125 136.652344,19.0996094 137.871094,19.0996094 C139.089844,19.0996094 140.130859,19.53125 140.994141,20.3945312 C141.857422,21.2578125 142.289062,22.2988281 142.289062,23.5175781 C142.289062,24.7363281 141.857422,25.7773437 140.994141,26.640625 C140.130859,27.5039062 139.089844,27.9355469 137.871094,27.9355469 Z" id="Forma"></path>
                    <polygon id="Trazado" points="171.551559 76 171.551559 19.2519531 205.333786 19.2519531 205.333786 22.4511719 175.004883 22.4511719 175.004883 45.3914032 202.185745 45.3914032 202.185745 48.5906219 175.004883 48.5906219 175.004883 76"></polygon>
                    <path d="M211.097543,76 L211.097543,35.78125 L214.322351,35.78125 L214.322351,42.8908234 L214.398523,42.8908234 C215.304254,40.6056671 216.806566,38.7902374 218.905458,37.4445343 C221.00435,36.0988312 223.446115,35.4259796 226.230752,35.4259796 C226.577493,35.4259796 226.858873,35.4344101 227.074891,35.4512711 C227.29091,35.468132 227.517343,35.4850922 227.75419,35.5021515 L227.75419,38.828125 C227.568124,38.8027344 227.316301,38.7709961 226.99872,38.7329102 C226.681138,38.6948242 226.289667,38.6757812 225.824304,38.6757812 C223.674432,38.6757812 221.736314,39.1582031 220.00995,40.1230469 C218.283586,41.0878906 216.921022,42.4505539 215.922258,44.2110367 C214.923494,45.9715195 214.424112,48.0619812 214.424112,50.4824219 L214.424112,76 L211.097543,76 Z" id="Trazado"></path>
                    <path d="M244.283626,76.609375 C241.837398,76.609375 239.569103,76.1904297 237.47874,75.3525391 C235.388378,74.5146484 233.706249,73.2387695 232.432354,71.5249023 C231.158458,69.8110352 230.521511,67.6633453 230.521511,65.0818329 C230.521511,63.2116547 230.874897,61.6248398 231.581668,60.3213882 C232.28844,59.0179367 233.329456,57.9323883 234.704715,57.064743 C236.079975,56.1970978 237.793842,55.4882431 239.846317,54.938179 C241.898792,54.3881149 244.274898,53.9353485 246.974636,53.5798798 C249.437526,53.2414703 251.515392,52.915657 253.208233,52.6024399 C254.901073,52.2892227 256.185482,51.8491516 257.061458,51.2822266 C257.937435,50.7153015 258.375423,49.8901062 258.375423,48.8066406 L258.375423,47.96875 C258.375423,46.0898438 257.878124,44.4162445 256.883525,42.9479523 C255.888927,41.47966 254.521999,40.3202209 252.782741,39.469635 C251.043483,38.6190491 249.056667,38.1937561 246.822292,38.1937561 C244.596645,38.1937561 242.584537,38.6147842 240.785968,39.4568405 C238.9874,40.2988968 237.56126,41.4477234 236.507549,42.9033203 C235.453838,44.3589172 234.910122,45.9966125 234.8764,47.8164062 L231.511745,47.8164062 C231.554195,45.4042969 232.248272,43.2440109 233.593975,41.3355484 C234.939678,39.4270859 236.759372,37.9142609 239.053058,36.7970734 C241.346744,35.6798859 243.936489,35.1212921 246.822292,35.1212921 C248.972164,35.1212921 250.950649,35.4386749 252.757747,36.0734406 C254.564846,36.7082062 256.134899,37.6010437 257.467907,38.7519531 C258.800914,39.9028625 259.835582,41.261261 260.571911,42.8271484 C261.308239,44.3930359 261.676403,46.1069031 261.676403,47.96875 L261.676403,76 L258.375423,76 L258.375423,68.5607452 L258.273662,68.5607452 C257.605175,70.0841827 256.627636,71.4530945 255.341045,72.6674805 C254.054454,73.8818665 252.482319,74.8424454 250.624637,75.5492172 C248.766956,76.2559891 246.653286,76.609375 244.283626,76.609375 Z M244.588314,73.511322 C247.296383,73.511322 249.687267,72.9676056 251.760967,71.8801727 C253.834667,70.7927399 255.455501,69.224968 256.62347,67.176857 C257.791439,65.128746 258.375423,62.6701202 258.375423,59.8009796 L258.375423,53.5548859 C257.918392,53.9528046 257.340755,54.2998428 256.642513,54.5960007 C255.944271,54.8921585 255.119075,55.1523132 254.166927,55.3764648 C253.214779,55.6006165 252.131412,55.8100891 250.916828,56.0048828 C249.702243,56.1996765 248.354457,56.3986359 246.87347,56.6017609 C243.936489,57.0080109 241.505336,57.5559921 239.580013,58.2457047 C237.654689,58.9354172 236.226467,59.8367844 235.295345,60.9498062 C234.364223,62.0628281 233.898662,63.4826202 233.898662,65.2091827 C233.898662,66.9948578 234.370571,68.5075836 235.314388,69.7473602 C236.258205,70.9871368 237.538349,71.924408 239.154819,72.5591736 C240.771289,73.1939392 242.582454,73.511322 244.588314,73.511322 Z" id="Forma"></path>
                    <path d="M271.679801,76 L271.679801,35.78125 L274.955786,35.78125 L274.955786,44.6171875 L274.282736,44.6171875 C274.900443,42.5097656 275.884329,40.7557297 277.234397,39.3550797 C278.584464,37.9544296 280.143904,36.8986359 281.912718,36.1876984 C283.681533,35.4767609 285.496863,35.1212921 287.35871,35.1212921 C290.507147,35.1212921 293.18804,36.0417023 295.401389,37.8825226 C297.614737,39.7233429 298.996344,42.103714 299.54621,45.0236359 L298.645239,45.0236359 C299.161383,43.0514984 300.058486,41.3227539 301.336547,39.8374023 C302.614607,38.3520508 304.182479,37.1946945 306.04016,36.3653336 C307.897841,35.5359726 309.947241,35.1212921 312.188361,35.1212921 C314.784552,35.1212921 317.063658,35.6925812 319.025679,36.8351593 C320.9877,37.9777374 322.52056,39.6365585 323.624259,41.8116226 C324.727957,43.9866867 325.279807,46.6315765 325.279807,49.7462921 L325.279807,76 L321.953238,76 L321.953238,49.7462921 C321.953238,45.9662628 320.988791,43.1085281 319.059897,41.1730881 C317.131003,39.237648 314.638159,38.269928 311.581366,38.269928 C309.407691,38.269928 307.458167,38.7396545 305.732794,39.6791077 C304.007422,40.6185608 302.644461,41.9638672 301.643912,43.7150269 C300.643363,45.4661865 300.143088,47.5611115 300.143088,49.9998016 L300.143088,76 L296.816519,76 L296.816519,49.5177765 C296.816519,45.9714203 295.883414,43.2101898 294.017203,41.2340851 C292.150992,39.2579803 289.701392,38.269928 286.668402,38.269928 C284.519324,38.269928 282.563155,38.7692108 280.799895,39.7677765 C279.036635,40.7663422 277.630232,42.1688766 276.580687,43.9753799 C275.531142,45.7818832 275.006369,47.9086456 275.006369,50.3556671 L275.006369,76 L271.679801,76 Z" id="Trazado"></path>
                    <path d="M350.873668,76.7111359 C347.259472,76.7111359 344.100322,75.8139343 341.396221,74.0195312 C338.692119,72.2251282 336.59531,69.7600555 335.105793,66.6243134 C333.616275,63.4885712 332.871517,59.9192047 332.871517,55.916214 C332.871517,51.8791046 333.628971,48.2947617 335.143879,45.1631851 C336.658786,42.0316086 338.761943,39.5665359 341.45335,37.7679672 C344.144756,35.9693985 347.234081,35.0701141 350.721325,35.0701141 C353.378612,35.0701141 355.78854,35.573761 357.951107,36.5810547 C360.113674,37.5883484 361.973537,39.0017929 363.530697,40.8213882 C365.087856,42.6409836 366.287563,44.7801437 367.129818,47.2388687 C367.972072,49.6975937 368.3932,52.3869171 368.3932,55.306839 L368.3932,56.5124969 L334.62347,56.5124969 L334.62347,53.4912109 L366.425228,53.4912109 L365.066631,54.3415985 C365.066631,51.1594391 364.450908,48.3517914 363.219463,45.9186554 C361.988018,43.4855194 360.293193,41.5854874 358.13499,40.2185593 C355.976787,38.8516312 353.505565,38.1681671 350.721325,38.1681671 C347.860515,38.1681671 345.336231,38.8896179 343.148471,40.3325195 C340.960712,41.7754211 339.25111,43.7770157 338.019664,46.3373032 C336.788219,48.8975906 336.172496,51.8703766 336.172496,55.255661 L336.172496,56.2209015 C336.172496,59.6145172 336.783954,62.6189423 338.00687,65.2341766 C339.229786,67.849411 340.945736,69.8954391 343.15472,71.372261 C345.363704,72.8490829 347.936687,73.5874939 350.873668,73.5874939 C353.031871,73.5874939 355.029201,73.1918564 356.865657,72.4005814 C358.702114,71.6093063 360.27415,70.490036 361.581768,69.0427704 C362.889385,67.5955048 363.805629,65.9028625 364.330501,63.9648438 L367.707653,63.9648438 C367.132,66.5122375 366.027408,68.7444305 364.393879,70.6614227 C362.760349,72.5784149 360.777797,74.0659485 358.446224,75.1240234 C356.11465,76.1820984 353.590465,76.7111359 350.873668,76.7111359 Z" id="Trazado"></path>
                    <path d="M382.675305,76 L370.690732,35.78125 L374.144055,35.78125 L381.52023,61.1714783 C382.120877,63.2281189 382.70268,65.3059845 383.265637,67.4050751 C383.828595,69.5041656 384.393536,71.5861969 384.960461,73.6511688 L384.249921,73.6511688 C384.867627,71.5861969 385.481168,69.5041656 386.090543,67.4050751 C386.699918,65.3059845 387.321988,63.2281189 387.956754,61.1714783 L396.055966,35.78125 L399.737805,35.78125 L407.812024,61.1714783 C408.463849,63.2281189 409.088101,65.3059845 409.684781,67.4050751 C410.281461,69.5041656 410.888654,71.5861969 411.50636,73.6511688 L410.757138,73.6511688 C411.349851,71.5861969 411.931851,69.5041656 412.50314,67.4050751 C413.074429,65.3059845 413.652066,63.2281189 414.23605,61.1714783 L421.649716,35.78125 L425.10304,35.78125 L413.118466,76 L409.233701,76 L400.2841,47.9693451 C399.962354,46.8521576 399.638524,45.7349701 399.312611,44.6177826 C398.986699,43.5005951 398.667134,42.3769608 398.353917,41.2468796 C398.0407,40.1167984 397.714887,39.0016937 397.376477,37.9015656 L398.430386,37.9015656 C398.10864,39.0016937 397.78481,40.1167984 397.458897,41.2468796 C397.132985,42.3769608 396.811337,43.5005951 396.493955,44.6177826 C396.176572,45.7349701 395.84451,46.8521576 395.497769,47.9693451 L386.509488,76 L382.675305,76 Z" id="Trazado"></path>
                    <path d="M445.55549,76.7111359 C442.017465,76.7111359 438.892236,75.8161163 436.179804,74.0260773 C433.467371,72.2360382 431.351518,69.7752304 429.832247,66.6436539 C428.312975,63.5120773 427.553339,59.936264 427.553339,55.916214 C427.553339,51.8703766 428.312975,48.2817688 429.832247,45.1503906 C431.351518,42.0190125 433.467371,39.5561218 436.179804,37.7617188 C438.892236,35.9673157 442.017465,35.0701141 445.55549,35.0701141 C449.10145,35.0701141 452.220133,35.9673157 454.911539,37.7617188 C457.602945,39.5561218 459.708284,42.0190125 461.227556,45.1503906 C462.746828,48.2817688 463.506464,51.8703766 463.506464,55.916214 C463.506464,59.936264 462.746828,63.5120773 461.227556,66.6436539 C459.708284,69.7752304 457.602945,72.2360382 454.911539,74.0260773 C452.220133,75.8161163 449.10145,76.7111359 445.55549,76.7111359 Z M445.55549,73.5874939 C448.466684,73.5874939 451.018343,72.8427353 453.210466,71.3532181 C455.40259,69.8637009 457.108026,67.7881165 458.326776,65.1264648 C459.545526,62.4648132 460.154901,59.3947296 460.154901,55.916214 C460.154901,52.420639 459.545526,49.3420258 458.326776,46.6803741 C457.108026,44.0187225 455.40259,41.9388733 453.210466,40.4408264 C451.018343,38.9427795 448.466684,38.1937561 445.55549,38.1937561 C442.652231,38.1937561 440.098291,38.9405975 437.893671,40.4342804 C435.68905,41.9279633 433.9731,44.0078125 432.745821,46.6738281 C431.518541,49.3398438 430.904901,52.420639 430.904901,55.916214 C430.904901,59.4030609 431.518541,62.4752274 432.745821,65.1327133 C433.9731,67.7901993 435.686968,69.8637009 437.887422,71.3532181 C440.087877,72.8427353 442.6439,73.5874939 445.55549,73.5874939 Z" id="Forma"></path>
                    <path d="M471.098165,76 L471.098165,35.78125 L474.322972,35.78125 L474.322972,42.8908234 L474.399144,42.8908234 C475.304875,40.6056671 476.807187,38.7902374 478.906079,37.4445343 C481.004972,36.0988312 483.446736,35.4259796 486.231374,35.4259796 C486.578115,35.4259796 486.859494,35.4344101 487.075513,35.4512711 C487.291532,35.468132 487.517964,35.4850922 487.754811,35.5021515 L487.754811,38.828125 C487.568746,38.8027344 487.316922,38.7709961 486.999341,38.7329102 C486.68176,38.6948242 486.290288,38.6757812 485.824925,38.6757812 C483.675054,38.6757812 481.736936,39.1582031 480.010571,40.1230469 C478.284207,41.0878906 476.921643,42.4505539 475.922879,44.2110367 C474.924115,45.9715195 474.424733,48.0619812 474.424733,50.4824219 L474.424733,76 L471.098165,76 Z" id="Trazado"></path>
                    <path d="M495.765513,59.7503967 L495.765513,55.1414032 L496.38798,55.1414032 L516.103404,35.78125 L520.572551,35.78125 L502.748332,53.3007812 L502.392466,53.453125 L495.765513,59.7503967 Z M492.883479,76 L492.883479,19.2519531 L496.210047,19.2519531 L496.210047,76 L492.883479,76 Z M518.210627,76 L500.285243,53.7834015 L502.697749,51.5488281 L522.451258,76 L518.210627,76 Z" id="Forma"></path>
                </g>
            </g>
        </g>
    </g>
</svg>